<svg width="494" height="715" viewBox="0 0 494 715" fill="none" xmlns="http://www.w3.org/2000/svg">
<path d="M258.101 671V627.364H267.327V663.393H286.034V671H258.101ZM306.76 671.639C303.451 671.639 300.588 670.936 298.174 669.53C295.773 668.109 293.919 666.135 292.612 663.607C291.306 661.064 290.652 658.116 290.652 654.764C290.652 651.384 291.306 648.429 292.612 645.901C293.919 643.358 295.773 641.384 298.174 639.977C300.588 638.557 303.451 637.847 306.76 637.847C310.07 637.847 312.925 638.557 315.326 639.977C317.74 641.384 319.601 643.358 320.908 645.901C322.215 648.429 322.868 651.384 322.868 654.764C322.868 658.116 322.215 661.064 320.908 663.607C319.601 666.135 317.74 668.109 315.326 669.53C312.925 670.936 310.07 671.639 306.76 671.639ZM306.803 664.608C308.308 664.608 309.566 664.182 310.574 663.33C311.583 662.463 312.343 661.284 312.854 659.793C313.379 658.301 313.642 656.604 313.642 654.7C313.642 652.797 313.379 651.099 312.854 649.608C312.343 648.116 311.583 646.937 310.574 646.071C309.566 645.205 308.308 644.771 306.803 644.771C305.283 644.771 304.004 645.205 302.968 646.071C301.945 646.937 301.171 648.116 300.645 649.608C300.134 651.099 299.878 652.797 299.878 654.7C299.878 656.604 300.134 658.301 300.645 659.793C301.171 661.284 301.945 662.463 302.968 663.33C304.004 664.182 305.283 664.608 306.803 664.608ZM334.406 671L325.5 638.273H334.683L339.754 660.261H340.052L345.336 638.273H354.349L359.718 660.134H359.995L364.981 638.273H374.143L365.258 671H355.649L350.024 650.418H349.619L343.994 671H334.406Z" fill="#31314F"/>
<path d="M240.855 649.5C240.855 664.478 227.481 677 210.495 677C193.508 677 180.134 664.478 180.134 649.5C180.134 634.522 193.508 622 210.495 622C227.481 622 240.855 634.522 240.855 649.5Z" fill="#CBE99B" stroke="#FEFEFE" stroke-width="5"/>
<path d="M237.793 334.364H249.17L261.188 363.682H261.699L273.716 334.364H285.094V378H276.145V349.598H275.783L264.49 377.787H258.396L247.104 349.491H246.741V378H237.793V334.364ZM307.439 378.639C304.073 378.639 301.175 377.957 298.746 376.594C296.331 375.216 294.471 373.27 293.164 370.756C291.857 368.227 291.203 365.237 291.203 361.786C291.203 358.419 291.857 355.464 293.164 352.922C294.471 350.379 296.31 348.398 298.682 346.977C301.069 345.557 303.867 344.847 307.077 344.847C309.236 344.847 311.246 345.195 313.107 345.891C314.982 346.572 316.615 347.602 318.007 348.98C319.414 350.358 320.507 352.091 321.289 354.179C322.07 356.253 322.461 358.682 322.461 361.466V363.959H294.826V358.334H313.917C313.917 357.027 313.632 355.869 313.064 354.861C312.496 353.852 311.708 353.064 310.699 352.496C309.705 351.913 308.547 351.622 307.226 351.622C305.848 351.622 304.627 351.942 303.561 352.581C302.51 353.206 301.686 354.051 301.09 355.116C300.493 356.168 300.188 357.339 300.174 358.632V363.98C300.174 365.599 300.472 366.999 301.069 368.178C301.679 369.357 302.539 370.266 303.647 370.905C304.755 371.544 306.069 371.864 307.588 371.864C308.597 371.864 309.52 371.722 310.358 371.438C311.196 371.153 311.914 370.727 312.51 370.159C313.107 369.591 313.561 368.895 313.874 368.071L322.269 368.625C321.843 370.642 320.969 372.403 319.648 373.909C318.341 375.401 316.651 376.565 314.577 377.403C312.517 378.227 310.138 378.639 307.439 378.639ZM340.444 378.533C337.958 378.533 335.706 377.893 333.689 376.615C331.686 375.322 330.096 373.426 328.917 370.926C327.752 368.412 327.169 365.33 327.169 361.679C327.169 357.929 327.773 354.811 328.98 352.325C330.188 349.825 331.793 347.957 333.796 346.722C335.813 345.472 338.022 344.847 340.422 344.847C342.255 344.847 343.782 345.159 345.003 345.784C346.239 346.395 347.233 347.162 347.986 348.085C348.753 348.994 349.336 349.889 349.733 350.77H350.01V334.364H359.066V378H350.117V372.759H349.733C349.307 373.668 348.703 374.57 347.922 375.464C347.155 376.345 346.154 377.077 344.918 377.659C343.696 378.241 342.205 378.533 340.444 378.533ZM343.32 371.31C344.783 371.31 346.019 370.912 347.027 370.116C348.05 369.307 348.831 368.178 349.371 366.729C349.925 365.28 350.202 363.582 350.202 361.636C350.202 359.69 349.932 358 349.392 356.565C348.853 355.131 348.071 354.023 347.049 353.241C346.026 352.46 344.783 352.07 343.32 352.07C341.828 352.07 340.571 352.474 339.549 353.284C338.526 354.094 337.752 355.216 337.226 356.651C336.701 358.085 336.438 359.747 336.438 361.636C336.438 363.54 336.701 365.223 337.226 366.686C337.766 368.135 338.54 369.271 339.549 370.095C340.571 370.905 341.828 371.31 343.32 371.31ZM366.528 378V345.273H375.605V378H366.528ZM371.088 341.054C369.739 341.054 368.581 340.607 367.615 339.712C366.663 338.803 366.188 337.716 366.188 336.452C366.188 335.202 366.663 334.129 367.615 333.234C368.581 332.325 369.739 331.871 371.088 331.871C372.438 331.871 373.588 332.325 374.54 333.234C375.506 334.129 375.989 335.202 375.989 336.452C375.989 337.716 375.506 338.803 374.54 339.712C373.588 340.607 372.438 341.054 371.088 341.054ZM403.863 364.065V345.273H412.94V378H404.225V372.055H403.885C403.146 373.973 401.917 375.514 400.199 376.679C398.494 377.844 396.413 378.426 393.956 378.426C391.768 378.426 389.843 377.929 388.181 376.935C386.52 375.94 385.22 374.527 384.282 372.695C383.359 370.862 382.89 368.668 382.876 366.111V345.273H391.953V364.491C391.967 366.423 392.485 367.95 393.508 369.072C394.531 370.195 395.902 370.756 397.62 370.756C398.714 370.756 399.737 370.507 400.689 370.01C401.64 369.499 402.407 368.746 402.99 367.751C403.586 366.757 403.877 365.528 403.863 364.065ZM420.2 378V345.273H428.851V351.047H429.234C429.916 349.129 431.053 347.616 432.643 346.509C434.234 345.401 436.138 344.847 438.354 344.847C440.598 344.847 442.509 345.408 444.085 346.53C445.662 347.638 446.713 349.143 447.239 351.047H447.58C448.247 349.172 449.455 347.673 451.202 346.551C452.963 345.415 455.044 344.847 457.445 344.847C460.499 344.847 462.977 345.82 464.881 347.766C466.798 349.697 467.757 352.439 467.757 355.99V378H458.702V357.78C458.702 355.962 458.219 354.598 457.253 353.689C456.287 352.78 455.08 352.325 453.631 352.325C451.983 352.325 450.697 352.851 449.774 353.902C448.851 354.939 448.389 356.31 448.389 358.014V378H439.589V357.588C439.589 355.983 439.128 354.705 438.205 353.753C437.295 352.801 436.095 352.325 434.604 352.325C433.595 352.325 432.686 352.581 431.876 353.092C431.081 353.589 430.449 354.293 429.98 355.202C429.511 356.097 429.277 357.148 429.277 358.355V378H420.2Z" fill="#31314F"/>
<circle cx="194" cy="356.5" r="27.5" fill="#FABD85" stroke="#FEFEFE" stroke-width="5"/>
<path d="M237.793 85V41.3636H247.018V59.3679H265.747V41.3636H274.952V85H265.747V66.9744H247.018V85H237.793ZM282.388 85V52.2727H291.464V85H282.388ZM286.947 48.054C285.598 48.054 284.44 47.6065 283.474 46.7116C282.523 45.8026 282.047 44.7159 282.047 43.4517C282.047 42.2017 282.523 41.1293 283.474 40.2344C284.44 39.3253 285.598 38.8707 286.947 38.8707C288.297 38.8707 289.447 39.3253 290.399 40.2344C291.365 41.1293 291.848 42.2017 291.848 43.4517C291.848 44.7159 291.365 45.8026 290.399 46.7116C289.447 47.6065 288.297 48.054 286.947 48.054ZM313.48 97.9545C310.539 97.9545 308.018 97.5497 305.916 96.7401C303.828 95.9446 302.166 94.858 300.93 93.4801C299.694 92.1023 298.892 90.554 298.522 88.8352L306.917 87.706C307.173 88.3594 307.578 88.9702 308.132 89.5384C308.686 90.1065 309.417 90.5611 310.326 90.902C311.25 91.2571 312.372 91.4347 313.693 91.4347C315.667 91.4347 317.294 90.9517 318.572 89.9858C319.865 89.0341 320.511 87.4361 320.511 85.1918V79.2045H320.127C319.73 80.1136 319.133 80.973 318.338 81.7827C317.542 82.5923 316.52 83.2528 315.27 83.7642C314.02 84.2756 312.528 84.5312 310.795 84.5312C308.338 84.5312 306.1 83.9631 304.083 82.8267C302.081 81.6761 300.483 79.9219 299.289 77.5639C298.11 75.1918 297.521 72.1946 297.521 68.5724C297.521 64.8651 298.125 61.7685 299.332 59.2827C300.539 56.7969 302.145 54.9361 304.147 53.7003C306.164 52.4645 308.373 51.8466 310.774 51.8466C312.606 51.8466 314.14 52.1591 315.376 52.7841C316.612 53.3949 317.606 54.1619 318.359 55.0852C319.126 55.9943 319.716 56.8892 320.127 57.7699H320.468V52.2727H329.481V85.3196C329.481 88.1037 328.799 90.4332 327.436 92.3082C326.072 94.1832 324.183 95.5895 321.768 96.527C319.368 97.4787 316.605 97.9545 313.48 97.9545ZM313.672 77.7131C315.135 77.7131 316.37 77.3509 317.379 76.6264C318.402 75.8878 319.183 74.8366 319.723 73.473C320.277 72.0952 320.554 70.4474 320.554 68.5298C320.554 66.6122 320.284 64.9503 319.744 63.544C319.204 62.1236 318.423 61.0227 317.4 60.2415C316.377 59.4602 315.135 59.0696 313.672 59.0696C312.18 59.0696 310.923 59.4744 309.9 60.2841C308.877 61.0795 308.103 62.1875 307.578 63.608C307.052 65.0284 306.789 66.669 306.789 68.5298C306.789 70.419 307.052 72.0526 307.578 73.4304C308.118 74.794 308.892 75.8523 309.9 76.6051C310.923 77.3437 312.18 77.7131 313.672 77.7131ZM345.781 66.0795V85H336.704V41.3636H345.525V58.0469H345.909C346.647 56.1151 347.841 54.6023 349.488 53.5085C351.136 52.4006 353.203 51.8466 355.689 51.8466C357.961 51.8466 359.943 52.3438 361.633 53.3381C363.338 54.3182 364.659 55.7315 365.596 57.5781C366.548 59.4105 367.017 61.6051 367.002 64.1619V85H357.926V65.7812C357.94 63.7642 357.429 62.1946 356.392 61.0724C355.369 59.9503 353.934 59.3892 352.088 59.3892C350.852 59.3892 349.758 59.652 348.806 60.1776C347.869 60.7031 347.13 61.4702 346.591 62.4787C346.065 63.473 345.795 64.6733 345.781 66.0795Z" fill="#31314F"/>
<circle cx="194" cy="63.5" r="27.5" fill="#FB7C7C" stroke="#FEFEFE" stroke-width="5"/>
<rect x="24.5" y="3.5" width="103" height="707.7" rx="46.5" fill="url(#paint0_linear_184_99)" stroke="white" stroke-width="7"/>
<defs>
<linearGradient id="paint0_linear_184_99" x1="76" y1="0" x2="76" y2="714.7" gradientUnits="userSpaceOnUse">
<stop stop-color="#FB7C7C"/>
<stop offset="0.458333" stop-color="#FABD85"/>
<stop offset="1" stop-color="#CBE99B"/>
</linearGradient>
</defs>
</svg>
