<svg xmlns="http://www.w3.org/2000/svg" viewBox="0 0 393.86 258.11"><defs><style>.a{fill:#fff;}</style></defs><path class="a" d="M440.18,132.5a2,2,0,0,1,1.64,3.14L419.71,167.5,359.6,254.14A2,2,0,0,1,358,255H291a2,2,0,0,0-2,2v86.93a1.93,1.93,0,0,1-.36,1.14l-31,44.68a2,2,0,0,1-3.64-1.14V187a2,2,0,0,1,2-2h31a2,2,0,0,1,2,2v31a2,2,0,0,0,2,2h48.63a2,2,0,0,0,1.65-.86l33.66-48.5a2,2,0,0,0-1.64-3.14H256a2,2,0,0,1-2-2v-31a2,2,0,0,1,2-2Z" transform="translate(-48.32 -132.5)"/><path class="a" d="M236.5,134.5v31a2,2,0,0,1-2,2H71.84a2,2,0,0,1-1.65-.86l-21.51-31a2,2,0,0,1,1.64-3.14H234.5A2,2,0,0,1,236.5,134.5Z" transform="translate(-48.32 -132.5)"/><path class="a" d="M236.5,187V388.61a2,2,0,0,1-3.64,1.14l-31-44.68a1.93,1.93,0,0,1-.36-1.14V222a2,2,0,0,0-2-2H108.27a2,2,0,0,1-1.65-.86l-21.51-31A2,2,0,0,1,86.75,185H234.5A2,2,0,0,1,236.5,187Z" transform="translate(-48.32 -132.5)"/></svg>