<svg width="756" height="101" viewBox="0 0 756 101" fill="none" xmlns="http://www.w3.org/2000/svg">
<path d="M755.555 80.3928H700.404V99.668H755.555V80.3928Z" fill="#021725"/>
<path d="M755.555 41.2546H700.404V60.2262H755.555V41.2546Z" fill="#021725"/>
<path d="M755.555 2.3418V21.6072H721.526V21.6758H700.404V2.3418H755.555Z" fill="#021725"/>
<path d="M682.497 11.1567L669.362 25.427C662.453 21.3722 657.477 19.3448 654.433 19.3448C653.296 19.3382 652.17 19.5693 651.128 20.0232C650.087 20.4772 649.153 21.1437 648.388 21.9794C647.57 22.8044 646.925 23.7823 646.49 24.8566C646.055 25.9309 645.839 27.0802 645.854 28.238C645.854 33.0372 650.232 37.19 658.989 40.6964C664.053 42.717 668.924 45.1853 673.543 48.0715C676.978 50.4371 679.803 53.5747 681.787 57.2292C683.993 61.0916 685.139 65.4622 685.11 69.903C685.11 78.2609 681.714 85.525 674.924 91.6954C668.413 97.7664 659.783 101.088 650.853 100.961C640.703 100.961 630.678 96.2171 620.778 86.7297L634.662 70.6474C640.874 77.066 646.695 80.2752 652.125 80.2752C654.66 80.2752 657.056 79.1489 659.442 76.9158C661.828 74.6827 662.943 72.3124 662.943 69.854C662.943 64.7675 657.546 60.2915 646.751 56.426C640.578 54.1799 636.2 52.0839 633.617 50.1381C630.775 47.8673 628.535 44.9424 627.089 41.617C625.354 38.0454 624.448 34.1329 624.436 30.1675C624.436 21.5224 627.273 14.5031 632.946 9.1097C638.619 3.71629 646.045 1.01306 655.222 1C666.042 1 675.134 4.38556 682.497 11.1567Z" fill="#021725"/>
<path d="M564.66 99.668L548.488 75.476H580.842L564.66 99.668Z" fill="#021725"/>
<path d="M572.509 2.07739H556.14L516.904 99.4035H538.045L545.766 80.2752L564.374 33.9481L584.46 82.9197L591.225 99.3937H612.426L572.509 2.07739Z" fill="#021725"/>
<path d="M425.1 2.3418H446.221V39.8443H480.922V2.3418H502.044V99.6679H480.922V60.9706H446.221V99.6679H425.1V2.3418Z" fill="#021725"/>
<path d="M344.606 2.3418H378.133C387.146 2.3418 394.41 4.95362 399.925 10.1773C405.441 15.4009 408.202 22.2569 408.208 30.7453C408.219 36.3018 406.822 41.7717 404.146 46.6513C401.456 51.6399 397.157 55.586 391.938 57.856C386.468 60.3307 381.791 61.617 377.906 61.715L365.669 62.0088V99.6679H344.606V2.3418ZM365.314 19.8345V44.7414H373.518C376.909 44.7133 380.153 43.3628 382.551 40.981C384.949 38.5992 386.309 35.377 386.337 32.0088C386.424 30.2495 386.083 28.4953 385.343 26.8945C384.604 25.2937 383.487 23.8934 382.087 22.8119C379.267 20.6376 375.244 19.5504 370.017 19.5504L365.314 19.8345Z" fill="#021725"/>
<path d="M295.114 100.021H319.855L307.381 75.8286H281.585L295.114 100.021Z" fill="#021725"/>
<path d="M268.747 99.6679H247.625V2.3418H268.747V43.4779H269.043L301.485 2.3418H327.409L268.796 70.0499M268.796 70.0499L268.747 99.6679L268.796 70.0499ZM268.796 70.0499L268.747 99.6679L268.796 70.0499Z" fill="#021725"/>
<path d="M229.422 11.1567L216.287 25.427C209.365 21.3722 204.388 19.3448 201.358 19.3448C200.22 19.3369 199.094 19.5675 198.052 20.0215C197.011 20.4755 196.077 21.1427 195.313 21.9794C194.492 22.8026 193.844 23.78 193.407 24.8545C192.97 25.9291 192.753 27.0793 192.769 28.238C192.769 33.0372 197.147 37.19 205.904 40.6964C210.968 42.717 215.839 45.1853 220.458 48.0715C223.895 50.4378 226.723 53.5751 228.712 57.2292C230.909 61.0947 232.052 65.4638 232.025 69.903C232.025 78.2609 228.629 85.525 221.839 91.6954C215.331 97.7658 206.705 101.088 197.778 100.961C187.622 100.961 177.593 96.2171 167.693 86.7297L181.577 70.6474C187.802 77.0268 193.624 80.2132 199.04 80.2067C201.585 80.2067 204.02 79.0803 206.357 76.8472C208.694 74.6141 209.868 72.2439 209.868 69.7855C209.868 64.699 204.467 60.223 193.666 56.3575C187.507 54.1113 183.128 52.0153 180.532 50.0695C177.693 47.7959 175.453 44.8718 174.004 41.5485C172.274 37.9751 171.368 34.0638 171.351 30.0989C171.351 21.4538 174.188 14.4345 179.861 9.04114C185.534 3.64774 192.95 0.954298 202.107 0.960827C212.961 0.986945 222.065 4.38556 229.422 11.1567Z" fill="#021725"/>
<path d="M111.23 99.6582L95.0483 75.476H127.412L111.23 99.6582Z" fill="#021725"/>
<path d="M119.079 2.3418H102.71L63.4741 99.6679H84.6157L92.2973 80.5396L110.905 34.2419L130.991 83.2135L137.756 99.6876H159.006L119.079 2.3418Z" fill="#021725"/>
<path d="M0 2.3418H65.8998V23.0176H43.4369V99.6679H22.315V23.0176H0V2.3418Z" fill="#021725"/>
</svg>
